PathFileType	4	(X/Y/Z)	/Users/itak/Documents/Research/Walk-IL/dataset/trc/00050_00006.trc
DataRate	CameraRate	NumFrames	NumMarkers	Units	OrigDataRate	OrigDataStartFrame	OrigNumFrames
100.000000	100.000000	4	53	mm	100.000000	256	513
Frame#	Time	RPSI			LPSI			L3			STRN			T10			C7			CLAV			RBAK			LBAK			LSHO			LUPA			LAEL			LAOL			LWTS			LWPS			LFRA			LIFD			LHPS			LHTS			RSHO			RUPA			RAEL			RAOL			RWTS			RWPS			RFRA			RIFD			RHTS			RHPS			RBHD			LFHD			RFHD			LBHD			LHIP			RHIP			RASI			LASI			LKNE			LTHI			LANK			LTIP			LTOE			LMT1			LMT5			LHEE			RKNE			RTHI			RANK			RTIP			RTOE			RMT1			RMT5			RHEE			
		X1	Y1	Z1	X2	Y2	Z2	X3	Y3	Z3	X4	Y4	Z4	X5	Y5	Z5	X6	Y6	Z6	X7	Y7	Z7	X8	Y8	Z8	X9	Y9	Z9	X10	Y10	Z10	X11	Y11	Z11	X12	Y12	Z12	X13	Y13	Z13	X14	Y14	Z14	X15	Y15	Z15	X16	Y16	Z16	X17	Y17	Z17	X18	Y18	Z18	X19	Y19	Z19	X20	Y20	Z20	X21	Y21	Z21	X22	Y22	Z22	X23	Y23	Z23	X24	Y24	Z24	X25	Y25	Z25	X26	Y26	Z26	X27	Y27	Z27	X28	Y28	Z28	X29	Y29	Z29	X30	Y30	Z30	X31	Y31	Z31	X32	Y32	Z32	X33	Y33	Z33	X34	Y34	Z34	X35	Y35	Z35	X36	Y36	Z36	X37	Y37	Z37	X38	Y38	Z38	X39	Y39	Z39	X40	Y40	Z40	X41	Y41	Z41	X42	Y42	Z42	X43	Y43	Z43	X44	Y44	Z44	X45	Y45	Z45	X46	Y46	Z46	X47	Y47	Z47	X48	Y48	Z48	X49	Y49	Z49	X50	Y50	Z50	X51	Y51	Z51	X52	Y52	Z52	X53	Y53	Z53	

257	2.56	236.9423065185547	1022.434753417969	-177.8021850585938	223.7655639648438	1006.36279296875	-353.9450378417969	238.80517578125	1076.828125	-270.4426879882812	510.5065307617188	1250.276977539062	-285.0681762695312	238.5499420166016	1210.963500976562	-274.8843078613281	318.4622802734375	1471.1796875	-286.0408325195312	490.9339294433594	1367.507690429688	-288.9751586914062	247.8084259033203	1340.196899414062	-204.7784576416016	291.5140686035156	1434.1396484375	-385.6725463867188	392.775146484375	1430.30078125	-460.54150390625	364.9813232421875	1305.814453125	-538.6552124023438	374.1209106445312	1090.21240234375	-562.4258422851562	315.1934204101562	1076.567749023438	-474.7058715820312	476.6475830078125	856.4646606445312	-497.4217834472656	414.8265686035156	840.8163452148438	-552.7618408203125	396.4734191894531	980.943603515625	-568.5198974609375	496.8743286132812	671.3486938476562	-473.7037658691406	450.7913513183594	761.5493774414062	-547.5340576171875	501.70361328125	774.8096923828125	-498.975830078125	387.2644348144531	1432.851928710938	-113.6696472167969	374.4552612304688	1367.215209960938	-48.54857635498047	334.89404296875	1112.427734375	13.01388359069824	349.7332458496094	1078.2099609375	-80.09946441650391	490.4084777832031	866.4812622070312	-9.845963478088379	423.8173828125	849.2777099609375	43.59940719604492	351.3104248046875	1030.881103515625	29.75924301147461	510.824951171875	679.3740844726562	-19.4650707244873	522.4821166992188	766.897216796875	-6.167896270751953	468.8254699707031	761.9822998046875	49.21554946899414	364.2849426269531	1644.984375	-350.5433959960938	522.2835693359375	1669.110961914062	-205.0891418457031	538.7979736328125	1680.060913085938	-330.0416870117188	356.4467163085938	1626.388427734375	-214.1655883789062	329.0487365722656	939.1154174804688	-442.0467834472656	294.9551086425781	949.3274536132812	-98.68851470947266	420.4131469726562	953.5003662109375	-119.7984619140625	437.2293701171875	944.7520751953125	-385.3729248046875	524.591552734375	511.6509399414062	-378.602783203125	454.9190063476562	633.7974853515625	-425.64697265625	496.3798217773438	41.48772430419922	-401.4333801269531	513.8239135742188	259.9629516601562	-403.9952392578125	697.083984375	51.59572601318359	-383.2380676269531	648.651123046875	43.67757415771484	-333.4022521972656	601.2442016601562	37.79174041748047	-434.2962951660156	439.9624328613281	39.77983474731445	-327.5739440917969	305.5269165039062	498.6568603515625	-112.4381103515625	353.9885864257812	767.2789916992188	-91.09142303466797	-1.156672120094299	102.1335601806641	-104.9175186157227	233.4346160888672	390.2667236328125	-101.7202529907227	175.3600921630859	37.56671142578125	-180.9959869384766	122.4974822998047	55.43247985839844	-206.2900848388672	110.2411346435547	49.96643829345703	-109.4864044189453	-45.39213180541992	136.6444244384766	-152.4744262695312	
258	2.57	227.6446380615234	1021.628356933594	-175.8147735595703	215.079345703125	1005.756713867188	-352.1282958984375	229.8701324462891	1076.2529296875	-268.3641967773438	502.2294311523438	1249.020629882812	-282.3061218261719	230.1658477783203	1210.302978515625	-272.4847106933594	310.7052307128906	1470.369384765625	-283.6800231933594	482.9654846191406	1366.303344726562	-286.4779052734375	239.7688446044922	1339.625366210938	-202.3278503417969	283.7087097167969	1433.232788085938	-383.29248046875	384.9369812011719	1429.004516601562	-458.1172790527344	356.8311767578125	1304.556884765625	-536.0524291992188	365.5662536621094	1089.088745117188	-560.2809448242188	306.9765930175781	1075.314819335938	-472.3407287597656	468.5928955078125	855.4197998046875	-495.8779296875	406.5510864257812	839.7289428710938	-550.9303588867188	387.979736328125	979.8295288085938	-566.5592041015625	489.2117309570312	670.3928833007812	-472.3387145996094	442.6551818847656	760.5001831054688	-545.8847045898438	493.7801818847656	773.8250122070312	-497.5818786621094	379.4085998535156	1432.071166992188	-111.269889831543	366.6531982421875	1366.459228515625	-46.0578727722168	327.7619323730469	1111.563110351562	16.06657409667969	342.4484252929688	1077.275268554688	-77.03131866455078	484.8936462402344	866.680908203125	-7.430020332336426	418.5819396972656	848.8832397460938	46.18400573730469	344.7510681152344	1029.985595703125	32.8574333190918	506.8504638671875	679.7926635742188	-17.29960823059082	517.8236083984375	767.3958129882812	-3.927582263946533	464.2740478515625	761.9435424804688	51.55662155151367	356.69677734375	1643.940673828125	-348.5202941894531	514.8143310546875	1668.092041015625	-203.198486328125	531.2362060546875	1678.897094726562	-328.154052734375	348.935302734375	1625.49658203125	-212.1137237548828	320.7542114257812	938.5543212890625	-439.7763977050781	284.8363342285156	948.3224487304688	-96.59925842285156	410.4857788085938	952.5344848632812	-116.9599685668945	428.6453552246094	944.0486450195312	-382.3794250488281	517.5233154296875	512.1076049804688	-377.188720703125	447.5357360839844	633.9200439453125	-423.9722290039062	496.0141906738281	41.49646759033203	-401.3221130371094	509.8458251953125	260.5883483886719	-403.3085632324219	695.8236083984375	55.87173461914062	-382.7288513183594	647.6822509765625	46.60061264038086	-333.0552673339844	600.7374267578125	39.0883674621582	-434.0081481933594	439.5949096679688	39.05298233032227	-327.5685119628906	294.8390808105469	497.7234497070312	-112.0610809326172	343.8387451171875	766.1369018554688	-89.01595306396484	-5.43660306930542	96.86298370361328	-106.9518661499023	224.0771026611328	388.444091796875	-102.0261077880859	174.7500305175781	37.92774963378906	-180.8883972167969	120.9309921264648	53.84250640869141	-206.8469848632812	108.1512069702148	49.18861389160156	-109.9498977661133	-50.75585556030273	129.8310241699219	-154.9778900146484	
259	2.58	218.1233215332031	1020.947387695312	-173.8667755126953	206.2988891601562	1005.226196289062	-350.296630859375	220.8164825439453	1075.81396484375	-266.2929077148438	493.8740844726562	1247.839721679688	-279.4147644042969	221.6999816894531	1209.773071289062	-270.0526428222656	302.9411926269531	1469.667846679688	-281.2595520019531	474.9493713378906	1365.17236328125	-283.8717346191406	231.6813507080078	1339.172119140625	-199.8360748291016	275.8954772949219	1432.4365234375	-380.8579711914062	377.1125183105469	1427.77978515625	-455.6167907714844	348.6758422851562	1303.3671875	-533.3683471679688	356.9921875	1088.03857421875	-558.0638427734375	298.7294616699219	1074.137817382812	-469.9094543457031	460.5267639160156	854.4614868164062	-494.2610473632812	398.25537109375	838.7141723632812	-549.0147094726562	379.464111328125	978.789306640625	-564.5245971679688	481.5475463867188	669.5250854492188	-470.8837585449219	434.5030517578125	759.5240478515625	-544.1444091796875	485.8349914550781	772.9100952148438	-496.1004638671875	371.4854125976562	1431.39501953125	-108.7883071899414	358.7669372558594	1365.8076171875	-43.48400115966797	320.5173950195312	1110.79541015625	19.17429161071777	335.0234985351562	1076.449951171875	-73.92521667480469	479.1473083496094	866.9488525390625	-4.980496406555176	413.1361694335938	848.5801391601562	48.806640625	337.9681701660156	1029.197875976562	35.97180938720703	502.5892944335938	680.2869262695312	-15.10001373291016	512.8997802734375	767.9591064453125	-1.652588486671448	459.4627685546875	761.9860229492188	53.92892074584961	349.1033935546875	1642.974731445312	-346.4529418945312	507.3507080078125	1667.158203125	-201.2734222412109	523.6716918945312	1677.794921875	-326.2308959960938	341.4236450195312	1624.705322265625	-210.0156555175781	312.3137512207031	938.0388793945312	-437.4831237792969	274.6553955078125	947.423583984375	-94.50579071044922	400.4754943847656	951.7005615234375	-114.0952301025391	419.9041748046875	943.396728515625	-379.3575439453125	510.1289367675781	512.5513305664062	-375.814697265625	439.8370971679688	634.0347290039062	-422.2827453613281	495.59912109375	41.53753662109375	-401.1656799316406	505.5316772460938	261.2604370117188	-402.6288146972656	694.3860473632812	60.74098968505859	-382.1475219726562	646.5458984375	50.1221809387207	-332.6119384765625	600.1637573242188	40.71027374267578	-433.6363220214844	439.1679992675781	38.18535995483398	-327.560791015625	284.6783752441406	496.8540344238281	-111.7140579223633	333.7036437988281	765.0715942382812	-86.89992523193359	-9.311335563659668	91.99395751953125	-109.036376953125	215.25439453125	386.7018432617188	-102.3672790527344	174.3814086914062	38.1987190246582	-180.7962341308594	119.6355361938477	52.45907974243164	-207.4659576416016	106.272819519043	48.71445465087891	-110.4218673706055	-55.63499069213867	123.4162368774414	-157.5768737792969	
260	2.59	208.4281921386719	1020.421997070312	-171.9561920166016	197.4356842041016	1004.789123535156	-348.4424438476562	211.6686706542969	1075.521728515625	-264.2233581542969	485.46044921875	1246.753173828125	-276.4163208007812	213.1689453125	1209.385986328125	-267.5862121582031	295.180419921875	1469.084716796875	-278.7886962890625	466.8988647460938	1364.133911132812	-281.1733093261719	223.5632934570312	1338.846923828125	-197.3072814941406	268.0829162597656	1431.764526367188	-378.3773498535156	369.3071899414062	1426.649047851562	-453.0506591796875	340.5254821777344	1302.266723632812	-530.6187744140625	348.4159240722656	1087.081909179688	-555.77978515625	290.4652709960938	1073.056518554688	-467.4209899902344	452.4565734863281	853.6002197265625	-492.572265625	389.9519958496094	837.7896728515625	-547.0249633789062	370.9441528320312	977.8423461914062	-562.4227294921875	473.8772583007812	668.7525634765625	-469.3426208496094	426.3410339355469	758.6370849609375	-542.32177734375	477.8725891113281	772.0784912109375	-494.5355224609375	363.5150146484375	1430.842529296875	-106.2388076782227	350.8162841796875	1365.283935546875	-40.83979797363281	313.170654296875	1110.154663085938	22.32935333251953	327.4668273925781	1075.76416015625	-70.79039764404297	473.156982421875	867.2980346679688	-2.498638868331909	407.4637756347656	848.3885498046875	51.46320724487305	330.9621887207031	1028.547119140625	39.09337997436523	498.0045166015625	680.86474609375	-12.86892986297607	507.6845092773438	768.5936279296875	0.6547987461090088	454.3697814941406	762.1239013671875	56.33199310302734	341.5125122070312	1642.099853515625	-344.3497619628906	499.9006042480469	1666.321411132812	-199.3247222900391	516.11328125	1676.765625	-324.283935546875	333.9207153320312	1624.029052734375	-207.8790740966797	303.7102661132812	937.5823364257812	-435.1781005859375	264.4813232421875	946.6624145507812	-92.40541839599609	390.4344177246094	951.0060424804688	-111.2436447143555	411.0082397460938	942.8017578125	-376.3508911132812	502.4187622070312	512.9874877929688	-374.4935607910156	431.8291625976562	634.149658203125	-420.602783203125	495.1140441894531	41.61738586425781	-400.9672546386719	500.879150390625	261.9799499511719	-401.9659118652344	692.7636108398438	66.12242126464844	-381.5231323242188	645.2265014648438	54.19490814208984	-332.0985717773438	599.5057983398438	42.66336822509766	-433.1948547363281	438.6635131835938	37.18568420410156	-327.5484313964844	275.0243225097656	496.07275390625	-111.3556442260742	323.604248046875	764.1165161132812	-84.75732421875	-12.80668067932129	87.52113342285156	-111.1436309814453	206.9416351318359	385.0662231445312	-102.6995391845703	174.1646118164062	38.371826171875	-180.7444152832031	118.5487060546875	51.25537490844727	-208.142822265625	104.5576858520508	48.45022201538086	-110.9244613647461	-60.03152084350586	117.4204635620117	-160.2231903076172	
